<?xml version="1.0" encoding="utf-8"?>
<!-- Generator: Adobe Illustrator 26.5.0, SVG Export Plug-In . SVG Version: 6.00 Build 0)  -->
<svg version="1.1" id="question-circle-Filled" xmlns="http://www.w3.org/2000/svg" xmlns:xlink="http://www.w3.org/1999/xlink"
	 x="0px" y="0px" viewBox="0 0 20.7 20.8" style="enable-background:new 0 0 20.7 20.8;" xml:space="preserve">
<style type="text/css">
	.st0{fill:#D59F54;}
</style>
<path class="st0" d="M7.5,15.1V3.7C7.5,1.7,9.2,0,11.2,0H17c2.1,0,3.7,1.7,3.7,3.7v5.8c0,2.1-1.7,3.7-3.7,3.7h-6.3L7.5,15.1z
	 M11.2,1C9.7,1,8.5,2.2,8.5,3.7v9.6l1.9-1.1H17c1.5,0,2.7-1.2,2.7-2.7V3.7C19.7,2.2,18.5,1,17,1H11.2z M13.8,10.2
	c-0.3,0-0.5-0.3-0.5-0.5c0-0.3,0.3-0.5,0.5-0.5c0.3,0,0.5,0.3,0.5,0.5l0,0C14.4,9.9,14.1,10.2,13.8,10.2z M14.9,7.5
	c-0.5,0.3-0.6,0.5-0.6,0.5c-0.1,0.2-0.3,0.4-0.5,0.4c-0.1,0-0.1,0-0.2-0.1c-0.3-0.1-0.4-0.4-0.4-0.7c0.2-0.5,0.6-0.9,1.1-1.1
	c0.4-0.2,0.7-0.7,0.6-1.1C14.8,5,14.5,4.6,14,4.5c-0.6-0.1-1.2,0.3-1.3,1c0,0.1,0,0.2,0,0.2c0,0.3-0.2,0.6-0.5,0.6s-0.6-0.2-0.6-0.5
	c0,0,0,0,0-0.1c0-0.7,0.3-1.3,0.8-1.7c1-0.8,2.4-0.7,3.2,0.3c0.3,0.3,0.4,0.7,0.5,1C16.2,6.2,15.7,7,14.9,7.5z M3.8,16.3
	c-1.8,0-3.2-1.5-3.2-3.2c0-1.8,1.5-3.2,3.2-3.2s3.2,1.5,3.2,3.2C7.1,14.8,5.6,16.3,3.8,16.3z M3.8,10.8c-1.2,0-2.3,1-2.3,2.3
	s1,2.3,2.3,2.3s2.3-1,2.3-2.3S5.1,10.8,3.8,10.8z M7.6,20.8H0v-1.7c0-2.1,1.7-3.8,3.8-3.8s3.8,1.7,3.8,3.8V20.8z M1,19.8h5.7v-0.7
	c0-1.6-1.3-2.8-2.8-2.8S1,17.6,1,19.1V19.8z"/>
</svg>
