<svg xmlns="http://www.w3.org/2000/svg" width="22.354" height="22.354" viewBox="0 0 22.354 22.354">
  <g id="Group_36242" data-name="Group 36242" transform="translate(-2660.94 -1402.823)">
    <g id="request" transform="translate(2660.94 1402.823)">
      <path id="Path_13239" data-name="Path 13239" d="M338.708,217.553a.655.655,0,1,1-.655-.655A.655.655,0,0,1,338.708,217.553Zm0,0" transform="translate(-322.667 -207.428)" fill="#333436"/>
      <path id="Path_13240" data-name="Path 13240" d="M299.642,72.3a2.407,2.407,0,0,0-2.408,2.408h0a.655.655,0,1,0,1.31,0,1.1,1.1,0,1,1,1.1,1.1.655.655,0,0,0-.655.655v.7a.655.655,0,1,0,1.31,0v-.137a2.409,2.409,0,0,0-.656-4.727Zm0,0" transform="translate(-284.258 -69.144)" fill="#333436"/>
      <path id="Path_13241" data-name="Path 13241" d="M6.285,247.192a3.461,3.461,0,1,0-4.244,0A4.158,4.158,0,0,0,0,250.774v1.4a.655.655,0,0,0,.655.655H7.67a.655.655,0,0,0,.655-.655v-1.4a4.158,4.158,0,0,0-2.04-3.582Zm-4.273-2.731a2.151,2.151,0,1,1,2.151,2.151,2.153,2.153,0,0,1-2.151-2.151Zm5,7.061H1.31v-.748a2.852,2.852,0,0,1,5.7,0v.748Zm0,0" transform="translate(-0.001 -230.479)" fill="#333436"/>
      <path id="Path_13242" data-name="Path 13242" d="M203.978,0H195.56A2.758,2.758,0,0,0,192.8,2.759V15.385a.655.655,0,0,0,1.048.524l2.631-1.973h7.5a2.758,2.758,0,0,0,2.759-2.759V2.759A2.758,2.758,0,0,0,203.978,0Zm1.449,11.177a1.448,1.448,0,0,1-1.449,1.449h-7.716a.656.656,0,0,0-.393.131l-1.758,1.318V2.759a1.448,1.448,0,0,1,1.449-1.449h8.418a1.448,1.448,0,0,1,1.449,1.449Zm0,0" transform="translate(-184.383 0)" fill="#333436"/>
    </g>
  </g>
</svg>
