<?xml version="1.0" encoding="utf-8"?>
<!-- Generator: Adobe Illustrator 26.5.0, SVG Export Plug-In . SVG Version: 6.00 Build 0)  -->
<svg version="1.1" id="flag-Filled" xmlns="http://www.w3.org/2000/svg" xmlns:xlink="http://www.w3.org/1999/xlink" x="0px"
	 y="0px" viewBox="0 0 16.3 21.1" style="enable-background:new 0 0 16.3 21.1;" xml:space="preserve">
<style type="text/css">
	.st0{fill:#D59F54;}
</style>
<path id="flag-Filled_1_" class="st0" d="M16.2,13.3c0.1,0.3,0,0.6-0.2,0.7c-0.1,0-0.2,0.1-0.2,0.1H2.2v6c0,0.6-0.5,1.1-1.1,1.1
	S0,20.6,0,20v-7.6c0,0,0,0,0,0V4.9C0,2.2,2.2,0,4.9,0h10.8c0.3,0,0.5,0.2,0.5,0.5c0,0.1,0,0.2-0.1,0.2l-2.8,5.5
	c-0.2,0.5-0.2,1,0,1.5L16.2,13.3z"/>
</svg>
