<svg xmlns="http://www.w3.org/2000/svg" xmlns:xlink="http://www.w3.org/1999/xlink" width="30" height="30" viewBox="0 0 30 30">
  <defs>
    <clipPath id="clip-path">
      <rect id="Rectangle_6658" data-name="Rectangle 6658" width="30" height="30" fill="#fff"/>
    </clipPath>
  </defs>
  <g id="Mask_Group_51" data-name="Mask Group 51" clip-path="url(#clip-path)">
    <g id="Group_35368" data-name="Group 35368" transform="translate(2.663 11.048)">
      <path id="Path_6060" data-name="Path 6060" d="M368.915,316.22v.569a.307.307,0,0,1-.312.312h-1.154a.307.307,0,0,1-.312-.312v-.5c.605-.012,1.2-.036,1.779-.073Z" transform="translate(-353.912 -309.197)" fill="#88837d"/>
      <path id="Path_6062" data-name="Path 6062" d="M300.27,316.29v.5a.307.307,0,0,1-.313.312H298.8a.307.307,0,0,1-.313-.312v-.569C299.071,316.255,299.665,316.279,300.27,316.29Z" transform="translate(-288.822 -309.195)" fill="#88837d"/>
      <path id="Path_6064" data-name="Path 6064" d="M289.77,189.586l.338.024.114.007v-.068Zm6.077-6.7.067.032Z" transform="translate(-280.553 -182.773)" fill="#88837d"/>
      <path id="Path_6065" data-name="Path 6065" d="M232.286,236.964l0-.007a.034.034,0,0,0,0,.006l0,.008v0Zm-.017-.1s0,.007,0,.01,0,.011,0,.016a.007.007,0,0,0,0,0C232.27,236.888,232.27,236.878,232.27,236.868Z" transform="translate(-226.031 -233.956)" fill="#88837d"/>
      <g id="Group_6979" data-name="Group 6979" transform="translate(0 0)">
        <path id="Path_6061" data-name="Path 6061" d="M422.367,182.857h-1.073c-.068-.108-.122-.2-.19-.3-.054-.068-.1-.149-.149-.218-.2-.285-.625-.828-.951-1.222a1.311,1.311,0,0,0-1.059-.489h-4.753a1.417,1.417,0,0,0-.567.108,1.49,1.49,0,0,1,.278.268c.074.09.156.19.239.294a1.182,1.182,0,0,1,.281-.032h1.372v.054a.307.307,0,0,0,.312.312h.964a.307.307,0,0,0,.312-.312v-.054h1.386a1.02,1.02,0,0,1,.828.38c.231.285.543.692.706.91.014.013.027.027.027.041.068.1.15.2.218.312a.46.46,0,0,1,.095.217.3.3,0,0,1-.3.3H416.6v.109a.485.485,0,0,1-.49.49H415.7a5.71,5.71,0,0,1,.162,1.385v2.14q.351.006.71.006c1.276,0,2.485-.054,3.572-.15v.815a.307.307,0,0,0,.313.312h1.154a.307.307,0,0,0,.312-.312V185.41a5.355,5.355,0,0,0-.217-1.562h.652a.307.307,0,0,0,.312-.313v-.367a.3.3,0,0,0-.3-.312Zm-1.331,2.5h-.755a.417.417,0,0,1-.1.013h-1.847a.229.229,0,0,1-.231-.231l.027-.34a.263.263,0,0,1,.258-.231h.066l.009-.006.007,0,.007,0,.011,0,.009,0,.01,0a.236.236,0,0,1,.051,0h2.43a.252.252,0,0,1,.252.231l.027.339A.225.225,0,0,1,421.036,185.356Z" transform="translate(-397.992 -180.63)" fill="#88837d"/>
        <path id="Path_6063" data-name="Path 6063" d="M120.285,180.639h-4.754a1.289,1.289,0,0,0-1.059.489c-.312.394-1.046,1.358-1.1,1.44s-.122.2-.19.3h-1.059a.307.307,0,0,0-.312.313v.367a.307.307,0,0,0,.312.313h.652a5.355,5.355,0,0,0-.217,1.562v2.811a.307.307,0,0,0,.313.312h1.154a.307.307,0,0,0,.312-.312v-.815c1.087.1,2.3.15,3.572.15q.359,0,.71-.006V185.42a5.716,5.716,0,0,1,.162-1.384h-.419a.485.485,0,0,1-.49-.49v-.108h-3.7a.3.3,0,0,1-.3-.3.461.461,0,0,1,.1-.217c.068-.108.733-.978.964-1.263a1.021,1.021,0,0,1,.829-.38h1.371v.054a.308.308,0,0,0,.313.313h.964a.308.308,0,0,0,.313-.313v-.054h1.385a1.239,1.239,0,0,1,.243.023c.086-.111.163-.209.222-.283h0a1.555,1.555,0,0,1,.276-.268A1.45,1.45,0,0,0,120.285,180.639Zm-4.2,3.911a.253.253,0,0,1,.258.231l.027.34a.224.224,0,0,1-.231.244h-.749l-.026.006-.024,0h0l-.024,0h-1.885a.229.229,0,0,1-.223-.231l.027-.34a.262.262,0,0,1,.251-.231h.078a.174.174,0,0,1,.106-.027Z" transform="translate(-111.81 -180.639)" fill="#88837d"/>
        <path id="Path_6066" data-name="Path 6066" d="M244.165,182.864h-1.073c-.068-.108-.122-.2-.19-.3-.054-.068-.1-.149-.149-.217-.064-.089-.148-.2-.245-.331l-.03-.038c-.146-.192-.316-.409-.479-.611l-.2-.242c-.018-.022-.036-.043-.054-.064l-.025-.027-.021-.022-.039-.038-.02-.018a1.282,1.282,0,0,0-.157-.118h0l-.031-.019-.022-.013-.017-.009-.024-.013c-.022-.011-.044-.022-.067-.032l-.034-.015-.032-.012-.009,0-.054-.019-.027-.009-.028-.008-.018-.005-.018,0-.024-.006-.047-.01-.043-.007-.046-.007h0l-.045,0h0l-.048,0h-4.914l-.041,0-.05,0h0l-.044,0h-.01l-.032,0-.016,0-.041.007-.045.009-.012,0-.029.007-.015,0-.017,0c-.026.007-.052.015-.078.025l-.036.013-.045.018-.044.02c-.036.018-.072.037-.107.059l-.021.013-.042.028-.021.015-.021.015-.02.016-.02.016-.03.026-.022.02-.027.026c-.029.028-.058.059-.085.091l-.027.033c-.05.063-.111.141-.178.227l-.14.18-.065.085c-.132.171-.27.352-.389.509l-.032.042-.048.062-.03.04-.156.208-.013.017-.019.025-.012.017-.005.007-.007.01,0,.007,0,0c-.016.022-.031.045-.046.069-.025.039-.048.079-.072.119s-.047.075-.072.111H232.58a.311.311,0,0,0-.222.09l-.02.022-.008.01-.015.022-.007.011-.009.017a.292.292,0,0,0-.015.037l0,.012c0,.007,0,.014-.005.022a.179.179,0,0,0,0,.022h0a.343.343,0,0,0,0,.046v.367s0,0,0,.007a.265.265,0,0,0,0,.029.1.1,0,0,0,0,.01.015.015,0,0,0,0,0,.084.084,0,0,0,0,.011v0s0,0,0,.007a.027.027,0,0,0,0,.008h0v0l0,.007h0a0,0,0,0,1,0,0h0l0,.008,0,.009,0,.008v0l.005.012.007.015h0l0,.006,0,.005v0l0,.007,0,0,.008.012.01.012.02.022a.311.311,0,0,0,.222.09h.652a4.961,4.961,0,0,0-.167.774c-.006.049-.012.1-.018.15,0,.017,0,.034,0,.05,0,.034-.006.068-.009.1s0,.069-.007.1,0,.062,0,.093,0,.062,0,.094h0c0,.025,0,.051,0,.076,0,.007,0,.013,0,.019v.017c0,.026,0,.053,0,.08v2.811a.352.352,0,0,0,0,.046c0,.008,0,.015,0,.022s0,.015.005.022l0,.012a.36.36,0,0,0,.015.037l.009.018.007.011.015.022.008.01.02.022a.312.312,0,0,0,.222.09h1.154a.307.307,0,0,0,.313-.313v-.815l.112.01.176.014.164.013q.229-.017.452-.036v.068l.106.007.042,0,.175.01.109.006.107.006.127.006.1,0q.277.012.561.021l.114,0,.344.008.177,0,.133,0h1.156l.133,0,.177,0,.172,0,.111,0h.061l.113,0,.512-.018.1,0,.17-.008.107-.005.109-.006.323-.019.453-.031.167-.013.173-.014.112-.01v.815a.318.318,0,0,0,.037.15.287.287,0,0,0,.053.072.312.312,0,0,0,.222.09H243.4a.307.307,0,0,0,.313-.312v-2.812a5.353,5.353,0,0,0-.217-1.562h.652a.307.307,0,0,0,.313-.312v-.367a.3.3,0,0,0-.3-.312Zm-7.57,2.5h-.749l-.026.006-.024,0h0l-.024,0H233.9a.229.229,0,0,1-.231-.231l.027-.34a.263.263,0,0,1,.258-.231h.066a.176.176,0,0,1,.106-.027h2.418a.254.254,0,0,1,.258.231l.027.34A.225.225,0,0,1,236.594,185.364Zm-1.964-1.928a.3.3,0,0,1-.3-.3.458.458,0,0,1,.1-.217c.059-.093.561-.752.846-1.115l.118-.148a.98.98,0,0,1,.369-.288,1.118,1.118,0,0,1,.46-.093h1.372v.054a.307.307,0,0,0,.313.312h.964a.307.307,0,0,0,.312-.312v-.054h1.385a1.133,1.133,0,0,1,.425.078.981.981,0,0,1,.4.3l.118.148c.21.265.452.58.588.762.014.013.027.027.027.041.068.1.149.2.217.313a.462.462,0,0,1,.1.217.3.3,0,0,1-.3.3Zm8.2,1.928h-.749a.415.415,0,0,1-.1.013h-1.847a.229.229,0,0,1-.231-.231l.027-.34a.262.262,0,0,1,.258-.231h.066l.009-.006.007,0,.007,0,.011,0,.009,0,.01,0a.237.237,0,0,1,.051,0h2.418a.253.253,0,0,1,.258.231l.027.339a.225.225,0,0,1-.231.245Z" transform="translate(-226.029 -180.637)" fill="#88837d"/>
      </g>
    </g>
  </g>
</svg>
