<svg xmlns="http://www.w3.org/2000/svg" width="71.994" height="71.995" viewBox="0 0 71.994 71.995">
  <path id="tag-Filled_1_" d="M444.871,2648.532l-17.5-17.5a12.139,12.139,0,0,0-8.52-3.537H406.878a9.388,9.388,0,0,0-9.378,9.378v11.977a11.98,11.98,0,0,0,3.537,8.52l17.5,17.5a12.063,12.063,0,0,0,17.067,0l9.271-9.271A12.063,12.063,0,0,0,444.871,2648.532Zm-33.974-3.617a4.019,4.019,0,1,1,4.019-4.019A4.014,4.014,0,0,1,410.9,2644.916Z" transform="translate(1612.845 -2138.997) rotate(45)" fill="#d59f54"/>
</svg>
