<?xml version="1.0" encoding="utf-8"?>
<!-- Generator: Adobe Illustrator 26.5.0, SVG Export Plug-In . SVG Version: 6.00 Build 0)  -->
<svg version="1.1" id="bookmark-Bold" xmlns="http://www.w3.org/2000/svg" xmlns:xlink="http://www.w3.org/1999/xlink" x="0px"
	 y="0px" viewBox="0 0 16 20" style="enable-background:new 0 0 16 20;" xml:space="preserve">
<style type="text/css">
	.st0{fill:#7E7E7E;}
</style>
<path id="bookmark-Bold_1_" class="st0" d="M11,0H5C2.2,0,0,2.2,0,5v13c0,1.1,0.9,2,2,2c0.4,0,0.8-0.1,1.1-0.4L8,16.3l4.9,3.4
	c0.9,0.6,2.2,0.4,2.8-0.5c0.2-0.3,0.4-0.7,0.4-1.1V5C16,2.2,13.8,0,11,0z M14,18l-4.9-3.4c-0.7-0.5-1.6-0.5-2.3,0L2,18V5
	c0-1.7,1.3-3,3-3h6c1.7,0,3,1.3,3,3V18z"/>
</svg>
