<?xml version="1.0" encoding="utf-8"?>
<!-- Generator: Adobe Illustrator 26.5.0, SVG Export Plug-In . SVG Version: 6.00 Build 0)  -->
<svg version="1.1" id="Layer_1" xmlns="http://www.w3.org/2000/svg" xmlns:xlink="http://www.w3.org/1999/xlink" x="0px" y="0px"
	 viewBox="0 0 416 416" style="enable-background:new 0 0 416 416;" xml:space="preserve">
<!--<style type="text/css">-->
<!--	.st0{fill:#92989E;}-->
<!--	.st1{fill:#D5A054;}-->
<!--</style>-->
<g>
	<path fill="#92989E" class="st0" d="M352,416H64c-35.3,0-64-28.7-64-64V64C0,28.7,28.7,0,64,0h288c35.3,0,64,28.7,64,64v288
		C416,387.3,387.3,416,352,416z M64,32c-17.6,0-32,14.4-32,32v288c0,17.6,14.4,32,32,32h288c17.6,0,32-14.4,32-32V64
		c0-17.6-14.4-32-32-32H64z"/>
</g>
<g>
	<path fill="#D5A054" class="st1" d="M169.6,304c-4.5,0-8.9-1.9-11.9-5.3l-57.6-64c-5.9-6.6-5.4-16.7,1.2-22.6c6.6-5.9,16.7-5.4,22.6,1.2l45.3,50.3
		l122.6-145.9c5.7-6.8,15.8-7.6,22.5-2c6.8,5.7,7.6,15.8,2,22.5l-134.4,160c-3,3.5-7.3,5.6-12,5.7C169.8,304,169.7,304,169.6,304z"
		/>
</g>
</svg>
