<?xml version="1.0" encoding="utf-8"?>
<!-- Generator: Adobe Illustrator 27.0.0, SVG Export Plug-In . SVG Version: 6.00 Build 0)  -->
<svg version="1.1" id="Layer_1" xmlns="http://www.w3.org/2000/svg" xmlns:xlink="http://www.w3.org/1999/xlink" x="0px" y="0px"
	 viewBox="0 0 416 416" style="enable-background:new 0 0 416 416;" xml:space="preserve">
<!--<style type="text/css">-->
<!--	.st0{fill:#D5A054;}-->
<!--</style>-->
<path fill="#D5A054" class="st0" d="M208,415.5C93.6,415.5,0.5,322.4,0.5,208C0.5,93.6,93.6,0.5,208,0.5S415.5,93.6,415.5,208
	C415.5,322.4,322.4,415.5,208,415.5z M208,31.5c-97.3,0-176.5,79.2-176.5,176.5c0,97.3,79.2,176.5,176.5,176.5
	S384.5,305.3,384.5,208C384.5,110.7,305.3,31.5,208,31.5z"/>
<path fill="#D5A054" class="st0" d="M229.9,205.9l79.2-79.2c6.1-6.1,6.1-15.9,0-21.9c-6.1-6.1-15.9-6.1-21.9,0L208,183.9l-79.2-79.2
	c-6.1-6.1-15.9-6.1-21.9,0c-6.1,6.1-6.1,15.9,0,21.9l79.2,79.2L106.9,285c-6.1,6.1-6.1,15.9,0,21.9c3,3,7,4.5,11,4.5s7.9-1.5,11-4.5
	l79.2-79.2l79.2,79.2c3,3,7,4.5,11,4.5s7.9-1.5,11-4.5c6.1-6.1,6.1-15.9,0-21.9L229.9,205.9z"/>
</svg>
