<?xml version="1.0" encoding="utf-8"?>
<!-- Generator: Adobe Illustrator 26.5.0, SVG Export Plug-In . SVG Version: 6.00 Build 0)  -->
<svg version="1.1" id="home-Filled" xmlns="http://www.w3.org/2000/svg" xmlns:xlink="http://www.w3.org/1999/xlink" x="0px"
	 y="0px" viewBox="0 0 18.1 19" style="enable-background:new 0 0 18.1 19;" xml:space="preserve">
<style type="text/css">
	.st0{fill:#FFFFFF;}
</style>
<g>
	<path class="st0" d="M5.6,2.8c0-0.3,0-0.6,0-0.9C5.6,0.8,6.3,0,7.4,0c1.1,0,2.2,0,3.3,0c1.1,0,1.8,0.8,1.8,1.9c0,0.3,0,0.6,0,0.9
		c0.1,0,0.2,0,0.2,0c1.5,0,3,0,4.5,0c0.2,0,0.3,0,0.5,0.1C18,3.1,18.1,3.4,18,3.7c-0.1,0.3-0.3,0.5-0.6,0.5c-0.4,0-0.7,0-1.1,0
		c-0.1,0-0.2,0-0.2,0.2c-0.1,2.1-0.3,4.3-0.4,6.4c-0.1,1.9-0.2,3.7-0.4,5.6c-0.1,1.5-1.3,2.6-2.8,2.6c-2.4,0-4.7,0-7.1,0
		c-1.5,0-2.7-1.2-2.8-2.7c-0.1-1.9-0.2-3.8-0.4-5.6C2.2,9.2,2.1,7.8,2,6.4C2,5.7,1.9,5,1.9,4.3c0-0.1-0.1-0.2-0.2-0.2
		c-0.3,0-0.7,0-1,0C0.3,4.2,0,3.9,0,3.5c0-0.4,0.3-0.7,0.8-0.7c1.5,0,3.1,0,4.6,0C5.4,2.8,5.5,2.8,5.6,2.8z M3.3,4.2
		c0,0.1,0,0.2,0,0.2C3.4,6,3.5,7.6,3.6,9.2c0.1,2.3,0.3,4.6,0.4,7c0.1,0.9,0.6,1.5,1.5,1.5c0.8,0,1.6,0,2.4,0c1.5,0,3,0,4.5,0
		c0.9,0,1.5-0.6,1.6-1.5c0-0.3,0-0.6,0.1-0.9c0.1-1.8,0.2-3.5,0.3-5.3c0.1-1.5,0.2-3,0.3-4.6c0-0.4,0-0.8,0.1-1.2
		C10.9,4.2,7.2,4.2,3.3,4.2z M6.9,2.8c1.4,0,2.8,0,4.2,0c0-0.2,0-0.4,0-0.7c0-0.6-0.1-0.7-0.7-0.7c-0.8,0-1.6,0-2.5,0
		c-0.2,0-0.4,0-0.6,0C7.1,1.5,7,1.6,6.9,1.9C6.9,2.2,6.9,2.4,6.9,2.8z"/>
	<path class="st0" d="M5.6,10.9c0-1.2,0-2.4,0-3.7c0-0.4,0.3-0.7,0.6-0.7c0.4,0,0.7,0.2,0.8,0.5c0,0.1,0,0.2,0,0.3
		c0,2.4,0,4.7,0,7.1c0,0.1,0,0.1,0,0.2c0,0.4-0.3,0.7-0.7,0.7c-0.4,0-0.7-0.3-0.7-0.7C5.6,13.3,5.6,12.1,5.6,10.9z"/>
	<path class="st0" d="M8.3,10.9c0-1.2,0-2.4,0-3.7c0-0.4,0.3-0.7,0.6-0.7c0.4,0,0.7,0.2,0.8,0.5c0,0.1,0,0.2,0,0.3
		c0,2.4,0,4.7,0,7.1c0,0.1,0,0.1,0,0.2c0,0.4-0.3,0.7-0.7,0.7c-0.4,0-0.7-0.3-0.7-0.7C8.3,13.3,8.3,12.1,8.3,10.9z"/>
	<path class="st0" d="M12.5,10.9c0,1.2,0,2.5,0,3.7c0,0.4-0.3,0.7-0.6,0.7c-0.4,0-0.7-0.2-0.8-0.5c0-0.1,0-0.2,0-0.3
		c0-2.4,0-4.8,0-7.2c0-0.5,0.3-0.8,0.7-0.8c0.4,0,0.7,0.3,0.7,0.8C12.5,8.5,12.5,9.7,12.5,10.9z"/>
</g>
</svg>
