<svg xmlns="http://www.w3.org/2000/svg" width="16.035" height="17.815" viewBox="0 0 16.035 17.815">
  <g id="Group_36241" data-name="Group 36241" transform="translate(-326.07 -47.907)">
    <g id="Group_11843" data-name="Group 11843" transform="translate(2.015 -7.343)">
      <g id="Group_11842" data-name="Group 11842" transform="translate(324.806 56)">
        <path id="Shape" d="M0,0H14.535" transform="translate(0 3.161)" fill="none" stroke="#fff" stroke-linecap="round" stroke-linejoin="round" stroke-miterlimit="10" stroke-width="1.5"/>
        <path id="Shape-2" data-name="Shape" d="M9.048,16.315H1.508A1.575,1.575,0,0,1,0,14.683V3.263H2.262V1.631A1.575,1.575,0,0,1,3.77,0H6.786A1.575,1.575,0,0,1,8.294,1.631V3.263h2.263V14.683A1.575,1.575,0,0,1,9.048,16.315Z" transform="translate(2.35 0)" fill="none" stroke="#fff" stroke-linecap="round" stroke-linejoin="round" stroke-miterlimit="10" stroke-width="1.5"/>
        <path id="Shape-3" data-name="Shape" d="M0,0V4.845" transform="translate(5.652 7.199)" fill="none" stroke="#fff" stroke-linecap="round" stroke-linejoin="round" stroke-miterlimit="10" stroke-width="1.5"/>
        <path id="Shape-4" data-name="Shape" d="M0,0V4.845" transform="translate(8.882 7.199)" fill="none" stroke="#fff" stroke-linecap="round" stroke-linejoin="round" stroke-miterlimit="10" stroke-width="1.5"/>
      </g>
    </g>
  </g>
</svg>
