<svg xmlns="http://www.w3.org/2000/svg" width="20.833" height="20.833" viewBox="0 0 20.833 20.833">
  <path id="question-circle-Filled_1_" d="M263.417,2555a10.417,10.417,0,1,0,10.417,10.417A10.434,10.434,0,0,0,263.417,2555Zm0,16.667a1.042,1.042,0,1,1,1.042-1.042A1.045,1.045,0,0,1,263.417,2571.667Zm2.125-4.875c-.958.635-1.115.979-1.135,1.042a1.038,1.038,0,0,1-.99.708,1.226,1.226,0,0,1-.333-.052,1.057,1.057,0,0,1-.656-1.323,4.777,4.777,0,0,1,1.958-2.115,1.948,1.948,0,0,0,1.083-2.1,2.114,2.114,0,0,0-1.667-1.667,2.087,2.087,0,0,0-2.469,2.052,1.042,1.042,0,1,1-2.083,0,4.149,4.149,0,0,1,1.49-3.188,4.162,4.162,0,0,1,6.781,2.438A4.07,4.07,0,0,1,265.542,2566.792Z" transform="translate(-253 -2555)" fill="#d59f54"/>
</svg>
