<?xml version="1.0" encoding="utf-8"?>
<!-- Generator: Adobe Illustrator 26.5.0, SVG Export Plug-In . SVG Version: 6.00 Build 0)  -->
<svg version="1.1" id="question-circle-Filled" xmlns="http://www.w3.org/2000/svg" xmlns:xlink="http://www.w3.org/1999/xlink"
	 x="0px" y="0px" viewBox="0 0 20.8 20.8" style="enable-background:new 0 0 20.8 20.8;" xml:space="preserve">
<style type="text/css">
	.st0{fill:#D59F54;}
</style>
<path id="question-circle-Filled_1_" class="st0" d="M10.4,0C4.7,0,0,4.7,0,10.4s4.7,10.4,10.4,10.4c5.8,0,10.4-4.7,10.4-10.4l0,0
	C20.8,4.7,16.2,0,10.4,0z M10.4,16.7c-0.6,0-1-0.5-1-1c0-0.6,0.5-1,1-1c0.6,0,1,0.5,1,1l0,0C11.5,16.2,11,16.7,10.4,16.7z
	 M12.5,11.8c-1,0.6-1.1,1-1.1,1c-0.1,0.4-0.5,0.7-1,0.7c-0.1,0-0.2,0-0.3-0.1c-0.5-0.2-0.8-0.8-0.7-1.3c0.4-0.9,1.1-1.6,2-2.1
	c0.8-0.4,1.2-1.2,1.1-2.1c-0.2-0.8-0.8-1.5-1.7-1.7C9.7,6.1,8.6,6.8,8.4,8c0,0.1,0,0.3,0,0.4c0,0.6-0.4,1.1-1,1.1
	c-0.6,0-1.1-0.4-1.1-1c0,0,0,0,0-0.1c0-1.2,0.5-2.4,1.5-3.2c1.8-1.5,4.4-1.3,5.9,0.5c0.5,0.6,0.8,1.2,0.9,1.9
	C14.8,9.3,14,10.9,12.5,11.8z"/>
</svg>
