<?xml version="1.0" encoding="utf-8"?>
<!-- Generator: Adobe Illustrator 26.5.0, SVG Export Plug-In . SVG Version: 6.00 Build 0)  -->
<svg version="1.1" id="filter-Regular" xmlns="http://www.w3.org/2000/svg" xmlns:xlink="http://www.w3.org/1999/xlink" x="0px"
	 y="0px" viewBox="0 0 17.5 19.5" style="enable-background:new 0 0 17.5 19.5;" xml:space="preserve">
<style type="text/css">
	.st0{fill:#D59F54;}
</style>
<path id="filter-Regular_1_" class="st0" d="M15.3,0h-13C1,0,0,1,0,2.2v2.1c0,0.5,0.2,0.9,0.5,1.2l5.1,5.1C5.9,10.9,6,11.2,6,11.6
	v7.2c0,0.4,0.3,0.8,0.8,0.8c0.2,0,0.3-0.1,0.5-0.2l4-3c0.2-0.1,0.3-0.4,0.3-0.6v-4.2c0-0.3,0.1-0.7,0.4-0.9L17,5.6
	c0.3-0.3,0.5-0.8,0.5-1.2V2.2C17.5,1,16.5,0,15.3,0z M2.3,1.5h13c0.4,0,0.8,0.3,0.8,0.8V4H1.5V2.2C1.5,1.8,1.8,1.5,2.3,1.5z
	 M10.8,9.6c-0.5,0.5-0.8,1.2-0.8,1.9v3.8l-2.5,1.9v-5.7c0-0.7-0.3-1.4-0.8-1.9L2.6,5.5h12.4L10.8,9.6z"/>
</svg>
