<?xml version="1.0" encoding="utf-8"?>
<!-- Generator: Adobe Illustrator 26.5.0, SVG Export Plug-In . SVG Version: 6.00 Build 0)  -->
<svg version="1.1" id="home-Bold" xmlns="http://www.w3.org/2000/svg" xmlns:xlink="http://www.w3.org/1999/xlink" x="0px" y="0px"
	 viewBox="0 0 20 20" style="enable-background:new 0 0 20 20;" xml:space="preserve">
<style type="text/css">
	.st0{fill:#7E7E7E;}
</style>
<path id="home-Bold_1_" class="st0" d="M18.1,5.1l-5-4c-1.8-1.5-4.4-1.5-6.3,0l-5,4C0.7,6.1,0,7.5,0,9v6c0,2.8,2.2,5,5,5h3v-5
	c0-1.1,0.9-2,2-2s2,0.9,2,2v5h3c2.8,0,5-2.2,5-5V9C20,7.5,19.3,6.1,18.1,5.1z M18,15c0,1.7-1.3,3-3,3h-1v-3c0-2.2-1.8-4-4-4
	s-4,1.8-4,4v3H5c-1.7,0-3-1.3-3-3V9c0-0.9,0.4-1.8,1.1-2.3l5-4c1.1-0.9,2.7-0.9,3.8,0l5,4C17.6,7.2,18,8.1,18,9L18,15L18,15z"/>
</svg>
