<svg xmlns="http://www.w3.org/2000/svg" width="20" height="19.992" viewBox="0 0 20 19.992">
  <path id="home-Bold_1_" d="M223.135,1753.122l-5-4.019a5.035,5.035,0,0,0-6.27,0l-5,4.019a4.972,4.972,0,0,0-1.865,3.892v5.992a5,5,0,0,0,5,4.994h3V1763a2,2,0,0,1,4,0v5h3a5,5,0,0,0,5-4.994v-5.992A4.973,4.973,0,0,0,223.135,1753.122Zm-.135,9.884a3,3,0,0,1-3,2.994h-1v-2.995a4,4,0,0,0-8,0V1766h-1a3,3,0,0,1-3-2.994v-5.992a2.982,2.982,0,0,1,1.118-2.333l5-4.019a3.024,3.024,0,0,1,3.764,0l5,4.019a2.98,2.98,0,0,1,1.119,2.333v5.992Z" transform="translate(-205 -1748.008)" fill="#7e7e7e"/>
</svg>
