<svg id="luxury-logo" xmlns="http://www.w3.org/2000/svg" width="294.865" height="54.665" viewBox="0 0 294.865 54.665">
  <path id="Path_37197" data-name="Path 37197" d="M276.779,98.678a5.488,5.488,0,0,0-1.489.785,5.776,5.776,0,0,0-2.051,2.836,4.384,4.384,0,0,0-.241,1.579,2.683,2.683,0,0,0,.374,1.281,2.4,2.4,0,0,0,.945.851,3.047,3.047,0,0,0,1.418.312h4.3l.473-1.385h-4.3a2.008,2.008,0,0,1-.945-.2,1.465,1.465,0,0,1-.6-.539,1.748,1.748,0,0,1-.236-.823,2.914,2.914,0,0,1,.166-1.04,3.834,3.834,0,0,1,.539-1.035,3.98,3.98,0,0,1,.785-.808,3.733,3.733,0,0,1,.945-.529,3.006,3.006,0,0,1,1.055-.189h4.3l.472-1.385h-4.3A4.8,4.8,0,0,0,276.779,98.678Z" transform="translate(-143.94 -51.879)" fill="#d59f54"/>
  <path id="Path_37198" data-name="Path 37198" d="M306.626,98.277a.474.474,0,0,0-.35-.118.832.832,0,0,0-.43.118,1.779,1.779,0,0,0-.4.326l-7.128,7.6H299.9l5.673-6.089.766,2.969h-2.434l-1.035,1.12h3.754l.515,2h1.669l-2.019-7.6A.708.708,0,0,0,306.626,98.277Z" transform="translate(-157.293 -51.756)" fill="#d59f54"/>
  <path id="Path_37199" data-name="Path 37199" d="M341.035,98.587a2.936,2.936,0,0,0-1.144-.2h-5.7l-2.685,7.932h1.375l2.217-6.547h4.321a1.158,1.158,0,0,1,.992.373,1.279,1.279,0,0,1,0,1.153,2.456,2.456,0,0,1-.78,1.182,1.99,1.99,0,0,1-1.272.411h-3.309l-.411,1.224h2.968l1.258,2.2h1.966l-1.574-2.411a3.871,3.871,0,0,0,1.532-.945,4.256,4.256,0,0,0,.993-1.669,3.452,3.452,0,0,0,.213-1.2,1.732,1.732,0,0,0-.26-.908A1.561,1.561,0,0,0,341.035,98.587Z" transform="translate(-174.793 -51.878)" fill="#d59f54"/>
  <path id="Path_37200" data-name="Path 37200" d="M387.54,98.587a2.942,2.942,0,0,0-1.144-.2h-5.7l-2.7,7.932h1.376l2.212-6.547h4.32a1.143,1.143,0,0,1,.993.373,1.281,1.281,0,0,1,0,1.153,2.456,2.456,0,0,1-.779,1.182,2,2,0,0,1-1.277.411h-3.309l-.416,1.224h2.969l1.262,2.2h1.967l-1.574-2.411a3.9,3.9,0,0,0,1.531-.945,4.249,4.249,0,0,0,.993-1.669,3.44,3.44,0,0,0,.213-1.2,1.787,1.787,0,0,0-.26-.908A1.614,1.614,0,0,0,387.54,98.587Z" transform="translate(-199.306 -51.878)" fill="#d59f54"/>
  <path id="Path_37201" data-name="Path 37201" d="M408.52,106.322h7.1l.468-1.385h-5.72l1.749-5.162h5.706l.468-1.385h-7.082Z" transform="translate(-215.399 -51.879)" fill="#d59f54"/>
  <path id="Path_37202" data-name="Path 37202" d="M416.05,106.572h4.4l.392-1.172h-4.4Z" transform="translate(-219.369 -55.575)" fill="#d59f54"/>
  <path id="Path_37203" data-name="Path 37203" d="M442.849,104.018l-3.721-5.554a.6.6,0,0,0-.222-.218.55.55,0,0,0-.269-.066.943.943,0,0,0-.6.222,1.383,1.383,0,0,0-.4.605l-2.435,7.2h1.319l1.967-5.805,3.678,5.607a.605.605,0,0,0,.534.3.914.914,0,0,0,.572-.217,1.338,1.338,0,0,0,.4-.615l2.458-7.266h-1.324Z" transform="translate(-229.472 -51.768)" fill="#d59f54"/>
  <path id="Path_37204" data-name="Path 37204" d="M468.36,99.775h3.011l-2.217,6.547h1.39l2.212-6.547h3.011l.468-1.385h-7.407Z" transform="translate(-246.951 -51.879)" fill="#d59f54"/>
  <path id="Path_37205" data-name="Path 37205" d="M494.535,98.277a.473.473,0,0,0-.35-.118.82.82,0,0,0-.43.118,1.777,1.777,0,0,0-.4.326l-7.128,7.6h1.578l5.673-6.089.761,2.969h-2.449l-1.035,1.12h3.753l.515,2H496.7L494.7,98.6A.706.706,0,0,0,494.535,98.277Z" transform="translate(-256.374 -51.756)" fill="#d59f54"/>
  <path id="Path_37206" data-name="Path 37206" d="M523.49,98.39H522.1l-2.685,7.932h6.722l.467-1.385h-5.332Z" transform="translate(-273.874 -51.879)" fill="#d59f54"/>
  <path id="Path_37207" data-name="Path 37207" d="M26.069,55.407H11.339c-4.912,0-8.169-2.992-8.618-7.247L.537,54.925c-.043.137-.061.27-.1.392h0c-.1.369-.194.738-.265,1.092h0a8.761,8.761,0,0,0-.137,1c0,.057-.052.714-.043.974,0,.123.033.733.057.908s.128.813.147.889A7.231,7.231,0,0,0,6.81,65.8a.038.038,0,0,1,.033,0,10.3,10.3,0,0,0,1.1.062H33.613C35.249,60.063,31.945,55.407,26.069,55.407Z" transform="translate(0.012 -25.394)" fill="#d59f54"/>
  <path id="Path_37208" data-name="Path 37208" d="M97.128,29.08l5.909-18.261C104.927,4.971,101.774.2,96.021.05l-5.843,18.1C88.278,24.026,91.4,28.829,97.128,29.08Z" transform="translate(-47.25 -0.026)" fill="#d59f54"/>
  <path id="Path_37209" data-name="Path 37209" d="M430.886,10.485H455.27c4.292.17,7.384,2.718,8.069,6.571v-.028c.217-.383.392-.761.581-1.153,0-.057.382-.945.511-1.347l1.153-3.569C467.56,4.912,464.237,0,458.182,0H423.805C422.193,5.673,425.29,10.249,430.886,10.485Z" transform="translate(-223.234)" fill="#d59f54"/>
  <path id="Path_37210" data-name="Path 37210" d="M272.316,15.413a12.456,12.456,0,0,0,3.631-.572L299.63.707,294,18.146c-1.891,5.881,1.22,10.683,6.949,10.934l5.9-18.261C308.649,5.226,305.818.6,300.5.1L286.138.05A14.253,14.253,0,0,0,278.263,2.7l-13.033,8.93.945,1.153A7.708,7.708,0,0,0,272.316,15.413Z" transform="translate(-139.845 -0.026)" fill="#d59f54"/>
  <path id="Path_37211" data-name="Path 37211" d="M121.83,55.4l-28.661.043c-4.912,0-8.169-2.983-8.613-7.242l-2.179,6.765c-1.584,4.907.307,9.072,4.316,10.461a8.982,8.982,0,0,0,2.917.473h19.112A16.742,16.742,0,0,0,121.83,55.4Z" transform="translate(-43.135 -25.415)" fill="#d59f54"/>
  <path id="Path_37212" data-name="Path 37212" d="M15.3,29.03l5.829-18.105C23.046,5.044,19.94.232,14.192,0L8.368,18.1C6.449,23.981,9.564,28.784,15.3,29.03Z" transform="translate(-4.108)" fill="#d59f54"/>
  <path id="Path_37213" data-name="Path 37213" d="M532.557,16.293a8.058,8.058,0,0,1-5.673-2.836L517.808,2.39a6.678,6.678,0,0,0-1.159-1h0a7.176,7.176,0,0,0-.638-.383l-.09-.038a5.979,5.979,0,0,0-.634-.293l-.161-.061c-.2-.076-.4-.147-.6-.2-.095-.028-.189-.047-.284-.071-.175-.047-.349-.09-.534-.123s-.3-.047-.449-.066-.274-.043-.416-.057a8,8,0,0,0-.912-.047H507.12c3.6,1.853,5.2,6.046,3.612,10.92l-.36,1.158,7.507,9.223h0l-2.661,8.24c-1.891,5.885,1.219,10.683,6.949,10.934l6.391-19.8,6.977-4.543a12.943,12.943,0,0,1-1.976.161A9.913,9.913,0,0,1,532.557,16.293Z" transform="translate(-267.389 -0.026)" fill="#d59f54"/>
  <path id="Path_37214" data-name="Path 37214" d="M204.541,38.789l.113.09a4.406,4.406,0,0,0,.473.331l.184.123a4.927,4.927,0,0,0,.473.255l.26.128.444.194c.1.043.217.08.326.118s.284.1.43.137l.411.1.392.09.534.076.326.038c.293.028.591.043.9.043h11.4L204.967,19.02l.3-.208.648-.444,3.2-2.189a12.9,12.9,0,0,1-1.976.161,9.926,9.926,0,0,1-1-.047,8.069,8.069,0,0,1-5.673-2.836L191.39,2.39a6.682,6.682,0,0,0-1.158-1h0c-.208-.137-.421-.265-.643-.383L189.5.972a5.906,5.906,0,0,0-.61-.3l-.161-.061c-.2-.076-.4-.147-.6-.2-.09-.028-.189-.047-.284-.071-.175-.047-.35-.09-.529-.123s-.3-.047-.473-.066-.274-.043-.416-.057c-.3-.028-.605-.043-.912-.043L174.174.1a14.97,14.97,0,0,0-7.734,3.1,15.874,15.874,0,0,0-5.625,7.625l-6.051,18.791-.132.4h0A18.528,18.528,0,0,1,144.175,40.5h6.807a13.313,13.313,0,0,0,5.413-1.239,17.063,17.063,0,0,0,8.863-9.653L174.594.646l14.952,18.36L142.18,54.692a14.291,14.291,0,0,0,7.876-2.647l45.031-26.26,8.982,12.579C204.229,38.51,204.385,38.643,204.541,38.789Z" transform="translate(-74.963 -0.026)" fill="#d59f54"/>
  <path id="Path_37215" data-name="Path 37215" d="M583.151.1,570.576.05A14.248,14.248,0,0,0,562.706,2.7l-14.026,8.93.946,1.153a7.694,7.694,0,0,0,6.146,2.633,12.454,12.454,0,0,0,3.63-.572L584.167.05Z" transform="translate(-289.302 -0.026)" fill="#d59f54"/>
  <path id="Path_37216" data-name="Path 37216" d="M459.221,37.091a17.33,17.33,0,0,0,7.233-5.871c-.255-4.065-3.2-6.831-7.493-7.02l-1.149,3.56H434.4L431,38.245h13.4l9.3,12.877a4.9,4.9,0,0,0,.473.411l.113.095a4.326,4.326,0,0,0,.473.326c.061.043.122.085.189.123.148.088.305.173.473.255l.255.128c.147.071.293.132.444.194l.326.118c.142.052.284.1.43.137a4.047,4.047,0,0,0,.411.1c.132.033.26.066.392.09l.534.076.326.043c.293,0,.591.038.9.038h11.4L458.758,37.29Z" transform="translate(-227.252 -12.76)" fill="#d59f54"/>
  <path id="Path_37217" data-name="Path 37217" d="M357.094,55.4l-28.661.043c-4.911,0-8.169-2.983-8.613-7.242l-2.184,6.765c-1.584,4.907.3,9.072,4.316,10.461a8.98,8.98,0,0,0,2.912.473h19.121A16.743,16.743,0,0,0,357.094,55.4Z" transform="translate(-167.183 -25.415)" fill="#d59f54"/>
  <path id="Path_37218" data-name="Path 37218" d="M402.609,34.549h0l.076-.232,1.03-3.2,2.836-8.788h0l.837-2.59,1.144-3.545c-4.642-.184-7.734-3.1-8.159-7.214l-2.293,7.195-1.011,3.144-4.921,15.231h0l-.052.17h0a18.557,18.557,0,0,1-10.456,10.49h6.788a13.309,13.309,0,0,0,5.445-1.239A16.914,16.914,0,0,0,402.609,34.549Z" transform="translate(-201.225 -4.735)" fill="#d59f54"/>
</svg>
