<svg id="Icon_menu" xmlns="http://www.w3.org/2000/svg" width="18" height="14" viewBox="0 0 18 14">
  <g id="Icon_menu-2" data-name="Icon_menu">
    <path id="Path" d="M0,1A1,1,0,0,1,1,0H17a1,1,0,0,1,0,2H1A1,1,0,0,1,0,1Z" fill="#d59f54"/>
    <path id="Path-2" data-name="Path" d="M0,1A1,1,0,0,1,1,0H17a1,1,0,0,1,0,2H1A1,1,0,0,1,0,1Z" transform="translate(0 6)" fill="#d59f54"/>
    <path id="Path-3" data-name="Path" d="M1,0A1,1,0,0,0,1,2H17a1,1,0,0,0,0-2Z" transform="translate(0 12)" fill="#d59f54"/>
  </g>
</svg>
