<svg xmlns="http://www.w3.org/2000/svg" xmlns:xlink="http://www.w3.org/1999/xlink" width="30" height="30" viewBox="0 0 30 30">
  <defs>
    <clipPath id="clip-path">
      <rect id="Rectangle_6658" data-name="Rectangle 6658" width="30" height="30" fill="#fff"/>
    </clipPath>
  </defs>
  <g id="Mask_Group_50" data-name="Mask Group 50" clip-path="url(#clip-path)">
    <g id="noun-luxury-car-251398" transform="translate(6.72 9.011)">
      <path id="Path_37393" data-name="Path 37393" d="M256.6,297.287c.623,0,2.432-.1,2.452-.1h.02a.339.339,0,0,0,.2-.06l.6-.342a.456.456,0,0,0,.121-.322l.1-.784-3.5.181-3.477-.161.1.784a.767.767,0,0,0,.121.322l.6.342a.388.388,0,0,0,.2.06h.02C254.187,297.186,255.955,297.267,256.6,297.287Z" transform="translate(-248.318 -289.127)" fill="#88837d"/>
      <path id="Path_37394" data-name="Path 37394" d="M135.413,118.751c-.342-.462-.764-.925-1.065-1.266l.884-.161a.285.285,0,0,0,.241-.3l-.161-.442a.285.285,0,0,0-.3-.241h-1.447l-1.286-2.412a1.015,1.015,0,0,0-.844-.563,31.318,31.318,0,0,0-7.758,0,1.015,1.015,0,0,0-.844.563l-1.286,2.412H120.1a.285.285,0,0,0-.3.241l-.161.442a.285.285,0,0,0,.241.3l.884.161a15.219,15.219,0,0,0-1.065,1.266,23.631,23.631,0,0,0-.422,4.381c0,.422.02.824.04,1.226.04.02.08.02.121.04v.221a.489.489,0,0,0,.482.482h2.472a.489.489,0,0,0,.482-.482v-.181h9.345v.181a.489.489,0,0,0,.482.482h2.492a.489.489,0,0,0,.482-.482V124.4c.04-.02.08-.02.121-.04.02-.4.04-.8.04-1.226a23.662,23.662,0,0,0-.422-4.381Zm-13.425-1.97,1.286-2.593v-.02a.567.567,0,0,1,.5-.362h.06a24.66,24.66,0,0,1,3.718-.261,20.485,20.485,0,0,1,3.738.261h.06a.591.591,0,0,1,.5.362v.02l1.286,2.593a.1.1,0,0,1-.08.141c-1.769.141-3.618.2-5.487.2s-3.718-.06-5.487-.2c-.08-.02-.141-.08-.1-.141Zm3.115,4.683a.678.678,0,0,1-.342-.1l-.643-.362a1.141,1.141,0,0,1-.241-.523l-.141-1.105,3.819.181,3.819-.181-.141,1.125a.844.844,0,0,1-.241.522l-.643.362a.678.678,0,0,1-.342.1s-1.829.1-2.452.1c-.643-.02-2.452-.121-2.452-.121Zm-5.185-1.97a1.82,1.82,0,0,1,.281-.623l3.055.442a.043.043,0,0,1,.04.04l.1.864a.043.043,0,0,1-.04.04l-1-.08-.362.281a.22.22,0,0,1-.2.04l-1.367-.2a.55.55,0,0,1-.362-.161.729.729,0,0,1-.141-.643Zm14.892,4.281s-5.426.08-7.255.08c-1.849,0-7.255-.08-7.255-.08a.265.265,0,0,1-.281-.342l.221-.683a.729.729,0,0,1,.7-.462s4.924.08,6.612.08c1.668,0,6.612-.08,6.612-.08a.729.729,0,0,1,.7.462l.221.683a.265.265,0,0,1-.281.342Zm.221-3.618a.669.669,0,0,1-.362.161l-1.367.2a.593.593,0,0,1-.2-.04l-.362-.281-1,.08c-.02,0-.06-.02-.04-.04l.1-.864a.043.043,0,0,1,.04-.04l3.055-.442a1.821,1.821,0,0,1,.281.623.647.647,0,0,1-.141.643Z" transform="translate(-119.275 -113.124)" fill="#88837d"/>
    </g>
  </g>
</svg>
