<svg xmlns="http://www.w3.org/2000/svg" xmlns:xlink="http://www.w3.org/1999/xlink" width="30" height="30" viewBox="0 0 30 30">
  <defs>
    <clipPath id="clip-path">
      <rect id="Rectangle_6658" data-name="Rectangle 6658" width="30" height="30" fill="#fff"/>
    </clipPath>
  </defs>
  <g id="Mask_Group_54" data-name="Mask Group 54" clip-path="url(#clip-path)">
    <g id="noun-car-paint-776620" transform="translate(5.786 7.824)">
      <path id="Path_37271" data-name="Path 37271" d="M85.142,75.889c.267-.5.551-.976.852-1.427l.023-.032.658-.914.024-.032a14.244,14.244,0,0,1,3.995-3.549,15.535,15.535,0,0,0-1.106-2.268,3.07,3.07,0,0,0-2.12-1.232h0a23.809,23.809,0,0,0-6.15,0,3.081,3.081,0,0,0-2.12,1.232,18.714,18.714,0,0,0-1.332,2.821,1.546,1.546,0,0,0-1.025-.463H76.5a.906.906,0,0,0-.9.9v.651a.94.94,0,0,0,.925.922h.448q-.07.092-.134.188a3.844,3.844,0,0,0-.628,2.229V79.3a.916.916,0,0,0,.912.908h1.185a.916.916,0,0,0,.916-.916V78.6h2.558a1.305,1.305,0,0,1,.265-.165.519.519,0,0,0,.31-.307,3.512,3.512,0,0,1,2.778-2.24Zm-4.188-.517H79.276a.713.713,0,0,1-.713-.713v-.44a.713.713,0,0,1,.893-.69l1.678.446a.713.713,0,0,1-.188,1.4Zm13.065-5.061A12.39,12.39,0,0,1,89.712,76.3a5.684,5.684,0,0,1-2.163-2.163,12.329,12.329,0,0,1,5.984-4.316.389.389,0,0,1,.485.487ZM87.739,76.1a6.752,6.752,0,0,0,1.049.858,16.5,16.5,0,0,1-1.854,1.063c-.564,3.774-3.385,2.445-4.457,1.79A.233.233,0,0,1,82.5,79.4a1.61,1.61,0,0,0,.867-.914,2.585,2.585,0,0,1,2.458-1.6h0a16.479,16.479,0,0,1,1.065-1.83,6.75,6.75,0,0,0,.848,1.049Z" transform="translate(-75.607 -66.231)" fill="#88837d"/>
    </g>
  </g>
</svg>
