<svg id="noun-protection-2791753" xmlns="http://www.w3.org/2000/svg" width="20.96" height="24.916" viewBox="0 0 20.96 24.916">
  <path id="Path_37904" data-name="Path 37904" d="M157.925,64.134s.756-1.791,6.01-4.5,4.537-6.766,4.3-10.667a40.047,40.047,0,0,0-.677-5.811s-6.607.278-9.632-3.94c-3.025,4.219-9.633,3.94-9.633,3.94a40.118,40.118,0,0,0-.676,5.811c-.239,3.9-.955,7.961,4.3,10.667s6.011,4.5,6.011,4.5ZM155.16,49.493l1.87,1.723,3.518-3.874,1.669,1.519-5.045,5.556-3.541-3.264Zm2.765-3.947a5.334,5.334,0,1,1-5.334,5.334A5.333,5.333,0,0,1,157.925,45.546Z" transform="translate(-147.445 -39.218)" fill="#d59f54" fill-rule="evenodd"/>
</svg>
