<?xml version="1.0" encoding="utf-8"?>
<!-- Generator: Adobe Illustrator 26.5.0, SVG Export Plug-In . SVG Version: 6.00 Build 0)  -->
<svg version="1.1" id="settings-Bold" xmlns="http://www.w3.org/2000/svg" xmlns:xlink="http://www.w3.org/1999/xlink" x="0px"
	 y="0px" viewBox="0 0 20 20" style="enable-background:new 0 0 20 20;" xml:space="preserve">
<style type="text/css">
	.st0{fill:#7E7E7E;}
</style>
<g id="settings-Bold-2">
	<path id="settings-Bold-3" class="st0" d="M10,14c-2.2,0-4-1.8-4-4s1.8-4,4-4s4,1.8,4,4S12.2,14,10,14z M10,8c-1.1,0-2,0.9-2,2
		s0.9,2,2,2s2-0.9,2-2S11.1,8,10,8z M10.5,20h-1C8.1,20,7,18.9,7,17.5c0,0,0-0.1-0.1-0.1c0,0-0.1,0-0.1,0c-1,1-2.6,1-3.5,0l-0.7-0.7
		c-1-1-1-2.6,0-3.5c0,0,0,0,0,0c0,0,0-0.1,0-0.1c0,0-0.1-0.1-0.1-0.1C1.1,13,0,11.9,0,10.5v-1C0,8.1,1.1,7,2.5,7c0,0,0.1,0,0.1-0.1
		c0,0,0-0.1,0-0.1c-1-1-1-2.6,0-3.5c0,0,0,0,0,0l0.7-0.7c1-1,2.6-1,3.5,0c0,0,0.1,0.1,0.1,0C7,2.6,7,2.5,7,2.5C7,1.1,8.1,0,9.5,0h1
		C11.9,0,13,1.1,13,2.5c0,0,0,0.1,0.1,0.1c0,0,0.1,0,0.1,0c0.5-0.5,1.1-0.8,1.8-0.8l0,0c0.7,0,1.3,0.3,1.8,0.7l0.7,0.7
		c1,1,1,2.6,0,3.5c0,0-0.1,0.1,0,0.1c0,0,0.1,0.1,0.1,0.1c0,0,0,0,0,0C18.9,7,20,8.1,20,9.5c0,0,0,0,0,0v1c0,1.4-1.1,2.5-2.5,2.5
		c-0.1,0-0.1,0-0.1,0s0,0.1,0,0.1c1,1,1,2.6,0,3.5c0,0,0,0,0,0l-0.7,0.7c-1,1-2.6,1-3.5,0l0,0c0,0-0.1-0.1-0.1,0c0,0-0.1,0-0.1,0.1
		C13,18.9,11.9,20,10.5,20C10.5,20,10.5,20,10.5,20z M7.7,15.5L7.7,15.5C8.5,15.9,9,16.6,9,17.5C9,17.8,9.2,18,9.5,18c0,0,0,0,0,0h1
		c0.3,0,0.5-0.2,0.5-0.5c0-0.9,0.5-1.6,1.3-2c0.8-0.3,1.7-0.1,2.3,0.5c0.2,0.2,0.5,0.2,0.7,0c0,0,0,0,0,0l0.7-0.7
		c0.2-0.2,0.2-0.5,0-0.7c0,0,0,0,0,0c-0.6-0.6-0.8-1.5-0.5-2.3c0,0,0,0,0,0l0,0c0.3-0.8,1.1-1.3,1.9-1.3c0.3,0,0.5-0.2,0.5-0.5
		c0,0,0,0,0,0v-1C18,9.2,17.8,9,17.5,9c-0.9,0-1.6-0.5-2-1.3l0,0C15.2,6.9,15.4,6,16,5.4c0.2-0.2,0.2-0.5,0-0.7c0,0,0,0,0,0L15.3,4
		c-0.1-0.1-0.2-0.1-0.4-0.1l0,0c-0.1,0-0.3,0.1-0.4,0.1c-0.6,0.6-1.5,0.8-2.3,0.5l0,0C11.5,4.1,11,3.4,11,2.5C11,2.2,10.8,2,10.5,2
		c0,0,0,0,0,0h-1C9.2,2,9,2.2,9,2.5c0,1.2-0.9,2.1-2.1,2.1C6.4,4.6,5.8,4.4,5.4,4C5.2,3.8,4.9,3.8,4.7,4c0,0,0,0,0,0L4,4.7
		C3.8,4.9,3.8,5.2,4,5.4C4.6,6,4.8,6.9,4.5,7.7c0,0.1-0.1,0.1-0.1,0.2C4,8.6,3.3,9,2.5,9C2.2,9,2,9.2,2,9.5c0,0,0,0,0,0v1
		C2,10.8,2.2,11,2.5,11c0.8,0,1.6,0.5,1.9,1.3l0,0c0,0,0,0,0,0.1C4.8,13.1,4.6,14,4,14.6c-0.1,0.1-0.2,0.2-0.2,0.4
		c0,0.1,0.1,0.3,0.1,0.4L4.7,16c0.2,0.2,0.5,0.2,0.7,0C6,15.4,6.9,15.2,7.7,15.5z M17.4,7L17.4,7L17.4,7z"/>
</g>
</svg>
