<?xml version="1.0" encoding="utf-8"?>
<!-- Generator: Adobe Illustrator 26.5.0, SVG Export Plug-In . SVG Version: 6.00 Build 0)  -->
<svg version="1.1" id="settings-Bold" xmlns="http://www.w3.org/2000/svg" xmlns:xlink="http://www.w3.org/1999/xlink" x="0px"
	 y="0px" viewBox="0 0 19.9 20" style="enable-background:new 0 0 19.9 20;" xml:space="preserve">
<style type="text/css">
	.st0{fill:#D59F54;}
	.st1{fill:#7E7E7E;}
</style>
<path class="st0" d="M19.3,8.8c-1.1,0-2-0.7-2.4-1.6V7c-0.4-1-0.2-2,0.6-2.8c0.3-0.2,0.3-0.7,0-0.9l0,0l-0.9-0.9
	c-0.1-0.1-0.3-0.2-0.5-0.2s-0.3,0.1-0.5,0.2c-0.8,0.8-1.9,1-2.9,0.6s-1.6-1.3-1.6-2.4C11.2,0.3,11,0,10.6,0H9.3C9,0,8.8,0.3,8.8,0.7
	c0,1.4-1.2,2.6-2.6,2.7C5.5,3.3,4.8,3,4.3,2.5c-0.2-0.3-0.7-0.3-0.9,0l0,0l-1,0.9C2.2,3.7,2.2,4,2.5,4.2c0.8,0.8,1,1.8,0.6,2.9
	C3.1,7.2,3,7.3,3,7.3C2.5,8.2,1.6,8.8,0.7,8.8C0.3,8.8,0,9,0,9.3v1.2c0,0.4,0.3,0.6,0.7,0.6c1.1,0,2,0.6,2.4,1.6l0,0v0.1
	c0.4,1,0.2,2.1-0.6,2.8c-0.1,0.1-0.2,0.3-0.2,0.5s0.1,0.3,0.2,0.5l0.9,0.9c0.2,0.3,0.7,0.3,0.9,0c0.8-0.8,1.8-1,2.8-0.6h0.1
	c1,0.4,1.6,1.3,1.6,2.4C8.8,19.7,9,20,9.3,20h1.2c0.4,0,0.6-0.3,0.6-0.7c0-1.1,0.7-2,1.6-2.4s2.1-0.2,2.8,0.6c0.2,0.3,0.7,0.3,0.9,0
	l0,0l0.9-0.9c0.3-0.2,0.3-0.7,0-0.9c-0.5-0.5-0.8-1.2-0.8-1.8c0-0.3,0.1-0.7,0.2-1c0,0,0,0,0-0.1l0,0c0.4-1,1.3-1.6,2.4-1.6
	c0.4,0,0.7-0.3,0.7-0.6V9.3C20,9,19.7,8.8,19.3,8.8z M10,13.5c-1.9,0-3.5-1.5-3.5-3.5S8.1,6.5,10,6.5s3.5,1.5,3.5,3.5
	S11.9,13.5,10,13.5z"/>
<path class="st1" d="M17.8,7.4L17.8,7.4L17.8,7.4z"/>
</svg>
