<svg xmlns="http://www.w3.org/2000/svg" width="20" height="20" viewBox="0 0 20 20">
  <g id="settings-Bold" transform="translate(-2 -2)">
    <path id="settings-Bold-2" data-name="settings-Bold" d="M12,16a4,4,0,1,1,4-4A4,4,0,0,1,12,16Zm0-6a2,2,0,1,0,2,2A2,2,0,0,0,12,10Zm.5,12h-1A2.5,2.5,0,0,1,9,19.5a.107.107,0,0,0-.068-.109c-.049-.024-.106.028-.106.028a2.51,2.51,0,0,1-3.543.009l-.706-.707a2.5,2.5,0,0,1,.006-3.54.1.1,0,0,0,.02-.123A.13.13,0,0,0,4.5,15,2.5,2.5,0,0,1,2,12.5v-1A2.5,2.5,0,0,1,4.5,9a.113.113,0,0,0,.108-.064.087.087,0,0,0-.022-.1,2.508,2.508,0,0,1-.012-3.549l.708-.709a2.507,2.507,0,0,1,3.535,0,.1.1,0,0,0,.126.032C9,4.58,9,4.5,9,4.5A2.5,2.5,0,0,1,11.5,2h1A2.5,2.5,0,0,1,15,4.5s-.005.1.05.12a.123.123,0,0,0,.118-.025,2.487,2.487,0,0,1,1.781-.75h0a2.48,2.48,0,0,1,1.768.732l.7.7a2.5,2.5,0,0,1,0,3.535c-.014.021-.072.064-.049.124A.086.086,0,0,0,19.472,9,2.509,2.509,0,0,1,22,11.5v1A2.5,2.5,0,0,1,19.5,15c-.06,0-.114,0-.133.049s-.009.08.04.121a2.5,2.5,0,0,1,.016,3.551l-.7.706a2.507,2.507,0,0,1-3.535,0h0s-.056-.068-.112-.048a.1.1,0,0,0-.071.092A2.509,2.509,0,0,1,12.5,22ZM9.671,17.532l.044.018A2.1,2.1,0,0,1,11,19.472a.508.508,0,0,0,.5.528h1a.5.5,0,0,0,.5-.5,2.124,2.124,0,0,1,1.31-1.961,2.084,2.084,0,0,1,2.265.451.507.507,0,0,0,.729.022l.7-.7a.5.5,0,0,0,0-.708,2.125,2.125,0,0,1-.475-2.265c.006-.016.011-.031.018-.047l.006-.014A2.074,2.074,0,0,1,19.474,13,.507.507,0,0,0,20,12.5v-1a.5.5,0,0,0-.5-.5,2.086,2.086,0,0,1-1.952-1.291l-.019-.046a2.066,2.066,0,0,1,.463-2.239.508.508,0,0,0,.02-.728l-.7-.7a.5.5,0,0,0-.354-.146h0a.5.5,0,0,0-.354.147,2.128,2.128,0,0,1-2.3.464h0A2.075,2.075,0,0,1,13,4.526.507.507,0,0,0,12.5,4h-1a.5.5,0,0,0-.5.5A2.1,2.1,0,0,1,7.425,6.01.506.506,0,0,0,6.7,5.988L5.988,6.7a.5.5,0,0,0,0,.707A2.089,2.089,0,0,1,6.46,9.691a1.007,1.007,0,0,1-.1.189A2.106,2.106,0,0,1,4.528,11,.508.508,0,0,0,4,11.5v1a.5.5,0,0,0,.5.5,2.083,2.083,0,0,1,1.943,1.273l.006.014c.009.021.017.041.024.063a2.1,2.1,0,0,1-.468,2.236.511.511,0,0,0-.16.366.494.494,0,0,0,.146.355l.706.706a.5.5,0,0,0,.707,0A2.092,2.092,0,0,1,9.671,17.532ZM19.4,8.96l0,.006Z" fill="#7e7e7e"/>
  </g>
</svg>
