<svg xmlns="http://www.w3.org/2000/svg" xmlns:xlink="http://www.w3.org/1999/xlink" width="30" height="30" viewBox="0 0 30 30">
  <defs>
    <clipPath id="clip-path">
      <rect id="Rectangle_15268" data-name="Rectangle 15268" width="30" height="30" fill="#fff"/>
    </clipPath>
  </defs>
  <g id="Mask_Group_84" data-name="Mask Group 84" clip-path="url(#clip-path)">
    <g id="noun-calendar-1011990" transform="translate(-93.521 -19.848)">
      <path id="Path_46304" data-name="Path 46304" d="M103.9,89.153h9.607a2.238,2.238,0,0,0,2.235-2.235V78.471a2.237,2.237,0,0,0-1.85-2.2v.711a1.246,1.246,0,0,1-1.24,1.24h-.28a1.24,1.24,0,0,1-1.24-1.24v-.747h-4.86v.747a1.24,1.24,0,0,1-1.24,1.24h-.28a1.246,1.246,0,0,1-1.24-1.24v-.711a2.237,2.237,0,0,0-1.85,2.2v8.448a2.238,2.238,0,0,0,2.235,2.235Zm.249-2.98a.829.829,0,1,1,.242.585A.833.833,0,0,1,104.151,86.173Zm4.555-3.313a.828.828,0,1,1-.828.828A.827.827,0,0,1,108.706,82.86Zm-.828-1.656a.828.828,0,1,1,.827.828A.827.827,0,0,1,107.878,81.2Zm.827,4.141a.828.828,0,1,1-.828.828A.829.829,0,0,1,108.7,85.345Zm2.9.828a.829.829,0,1,1,.242.585A.833.833,0,0,1,111.6,86.173Zm.242-5.555a.826.826,0,1,1-.243.586A.834.834,0,0,1,111.847,80.617Zm0,2.485a.826.826,0,1,1-.243.586A.834.834,0,0,1,111.847,83.1Zm-7.454-2.485a.826.826,0,1,1-.243.586A.834.834,0,0,1,104.393,80.617Zm0,2.485a.826.826,0,1,1-.243.586A.834.834,0,0,1,104.393,83.1Z" transform="translate(0 -46.872)" fill="#88837d"/>
      <path id="Path_46305" data-name="Path 46305" d="M190.874,30.688h.28a.578.578,0,0,0,.577-.577V28.573a.578.578,0,0,0-.577-.577h-.28a.578.578,0,0,0-.577.577V30.11A.578.578,0,0,0,190.874,30.688Z" transform="translate(-86.118)" fill="#88837d"/>
      <path id="Path_46306" data-name="Path 46306" d="M459.694,30.688h.28a.578.578,0,0,0,.577-.577V28.573a.578.578,0,0,0-.577-.577h-.28a.578.578,0,0,0-.577.577V30.11A.578.578,0,0,0,459.694,30.688Z" transform="translate(-347.319)" fill="#88837d"/>
    </g>
  </g>
</svg>
